<mxfile host="app.diagrams.net" agent="Mozilla/5.0 (Windows NT 10.0; Win64; x64) AppleWebKit/537.36 (KHTML, like Gecko) Chrome/137.0.0.0 Safari/537.36" version="27.2.0" pages="3">
  <diagram name="항공편 유스케이스" id="xU9BOwyfuUa-ZSSMlTyF">
    <mxGraphModel dx="3565" dy="1963" grid="1" gridSize="10" guides="1" tooltips="1" connect="1" arrows="1" fold="1" page="1" pageScale="1" pageWidth="827" pageHeight="1169" math="0" shadow="0">
      <root>
        <mxCell id="0" />
        <mxCell id="1" parent="0" />
        <mxCell id="N48SJEr8mM9VWYfMrbOk-1" value="항공편 예매 프로그램" style="shape=umlFrame;whiteSpace=wrap;html=1;pointerEvents=0;width=140;height=50;" vertex="1" parent="1">
          <mxGeometry x="272" y="404.4000244140625" width="1120" height="880" as="geometry" />
        </mxCell>
        <mxCell id="N48SJEr8mM9VWYfMrbOk-2" value="회원 고객" style="shape=umlActor;verticalLabelPosition=bottom;verticalAlign=top;html=1;" vertex="1" parent="1">
          <mxGeometry x="192" y="859.4000244140625" width="30" height="60" as="geometry" />
        </mxCell>
        <mxCell id="N48SJEr8mM9VWYfMrbOk-3" value="비회원 고객" style="shape=umlActor;verticalLabelPosition=bottom;verticalAlign=top;html=1;" vertex="1" parent="1">
          <mxGeometry x="192" y="474.4000244140625" width="30" height="60" as="geometry" />
        </mxCell>
        <mxCell id="N48SJEr8mM9VWYfMrbOk-4" value="항공사 직원" style="shape=umlActor;verticalLabelPosition=bottom;verticalAlign=top;html=1;" vertex="1" parent="1">
          <mxGeometry x="624" y="1324.4000244140625" width="30" height="60" as="geometry" />
        </mxCell>
        <mxCell id="N48SJEr8mM9VWYfMrbOk-5" value="&lt;font style=&quot;font-size: 15px;&quot;&gt;항공편 조회&lt;/font&gt;" style="ellipse;whiteSpace=wrap;html=1;" vertex="1" parent="1">
          <mxGeometry x="396" y="799.4000244140625" width="110" height="60" as="geometry" />
        </mxCell>
        <mxCell id="N48SJEr8mM9VWYfMrbOk-6" value="Use" style="html=1;verticalAlign=bottom;endArrow=block;curved=0;rounded=0;entryX=0;entryY=0.667;entryDx=0;entryDy=0;entryPerimeter=0;" edge="1" parent="1" source="N48SJEr8mM9VWYfMrbOk-2" target="N48SJEr8mM9VWYfMrbOk-5">
          <mxGeometry x="0.0091" y="-7" width="80" relative="1" as="geometry">
            <mxPoint x="362" y="584.4000244140625" as="sourcePoint" />
            <mxPoint x="442" y="584.4000244140625" as="targetPoint" />
            <mxPoint as="offset" />
          </mxGeometry>
        </mxCell>
        <mxCell id="N48SJEr8mM9VWYfMrbOk-7" value="Use" style="html=1;verticalAlign=bottom;endArrow=block;curved=0;rounded=0;entryX=0.087;entryY=0.173;entryDx=0;entryDy=0;entryPerimeter=0;exitX=0.5;exitY=0.5;exitDx=0;exitDy=0;exitPerimeter=0;" edge="1" parent="1" source="N48SJEr8mM9VWYfMrbOk-3" target="N48SJEr8mM9VWYfMrbOk-5">
          <mxGeometry x="-0.0574" y="1" width="80" relative="1" as="geometry">
            <mxPoint x="342" y="1124.4000244140625" as="sourcePoint" />
            <mxPoint x="422" y="1124.4000244140625" as="targetPoint" />
            <mxPoint as="offset" />
          </mxGeometry>
        </mxCell>
        <mxCell id="N48SJEr8mM9VWYfMrbOk-8" value="&lt;font style=&quot;font-size: 15px;&quot;&gt;항공편 관리&lt;/font&gt;" style="ellipse;whiteSpace=wrap;html=1;" vertex="1" parent="1">
          <mxGeometry x="992" y="1024.4000244140625" width="110" height="60" as="geometry" />
        </mxCell>
        <mxCell id="N48SJEr8mM9VWYfMrbOk-9" value="&lt;font style=&quot;font-size: 15px;&quot;&gt;로그인&lt;/font&gt;" style="ellipse;whiteSpace=wrap;html=1;" vertex="1" parent="1">
          <mxGeometry x="858" y="884.4000244140625" width="110" height="60" as="geometry" />
        </mxCell>
        <mxCell id="N48SJEr8mM9VWYfMrbOk-10" value="" style="edgeStyle=orthogonalEdgeStyle;rounded=0;orthogonalLoop=1;jettySize=auto;html=1;fontSize=12;startSize=8;endSize=8;endArrow=block;endFill=0;" edge="1" parent="1" source="N48SJEr8mM9VWYfMrbOk-11" target="N48SJEr8mM9VWYfMrbOk-8">
          <mxGeometry relative="1" as="geometry" />
        </mxCell>
        <mxCell id="N48SJEr8mM9VWYfMrbOk-11" value="&lt;span style=&quot;font-size: 15px;&quot;&gt;수정&lt;/span&gt;" style="ellipse;whiteSpace=wrap;html=1;" vertex="1" parent="1">
          <mxGeometry x="1182" y="1034.4000244140625" width="43" height="40" as="geometry" />
        </mxCell>
        <mxCell id="N48SJEr8mM9VWYfMrbOk-12" value="&lt;font style=&quot;font-size: 15px;&quot;&gt;예매&lt;/font&gt;" style="ellipse;whiteSpace=wrap;html=1;" vertex="1" parent="1">
          <mxGeometry x="544" y="594.4000244140625" width="110" height="60" as="geometry" />
        </mxCell>
        <mxCell id="N48SJEr8mM9VWYfMrbOk-13" value="예메 시스템&lt;br&gt;&lt;div&gt;관리자&lt;/div&gt;" style="shape=umlActor;verticalLabelPosition=bottom;verticalAlign=top;html=1;" vertex="1" parent="1">
          <mxGeometry x="909" y="1324.4000244140625" width="30" height="60" as="geometry" />
        </mxCell>
        <mxCell id="N48SJEr8mM9VWYfMrbOk-14" value="" style="edgeStyle=orthogonalEdgeStyle;rounded=0;orthogonalLoop=1;jettySize=auto;html=1;fontSize=12;startSize=8;endSize=8;endArrow=block;endFill=0;" edge="1" parent="1" source="N48SJEr8mM9VWYfMrbOk-15" target="N48SJEr8mM9VWYfMrbOk-8">
          <mxGeometry relative="1" as="geometry" />
        </mxCell>
        <mxCell id="N48SJEr8mM9VWYfMrbOk-15" value="&lt;span style=&quot;font-size: 15px;&quot;&gt;조회&lt;/span&gt;" style="ellipse;whiteSpace=wrap;html=1;" vertex="1" parent="1">
          <mxGeometry x="1182" y="994.4000244140625" width="43" height="40" as="geometry" />
        </mxCell>
        <mxCell id="N48SJEr8mM9VWYfMrbOk-16" value="" style="edgeStyle=orthogonalEdgeStyle;rounded=0;orthogonalLoop=1;jettySize=auto;html=1;fontSize=12;startSize=8;endSize=8;endArrow=block;endFill=0;" edge="1" parent="1" source="N48SJEr8mM9VWYfMrbOk-17" target="N48SJEr8mM9VWYfMrbOk-28">
          <mxGeometry relative="1" as="geometry" />
        </mxCell>
        <mxCell id="N48SJEr8mM9VWYfMrbOk-17" value="&lt;font style=&quot;font-size: 15px;&quot;&gt;수정&lt;/font&gt;" style="ellipse;whiteSpace=wrap;html=1;" vertex="1" parent="1">
          <mxGeometry x="432.5" y="1134.4000244140625" width="50" height="50" as="geometry" />
        </mxCell>
        <mxCell id="N48SJEr8mM9VWYfMrbOk-18" value="" style="edgeStyle=orthogonalEdgeStyle;rounded=0;orthogonalLoop=1;jettySize=auto;html=1;fontSize=12;startSize=8;endSize=8;endArrow=block;endFill=0;" edge="1" parent="1" source="N48SJEr8mM9VWYfMrbOk-19" target="N48SJEr8mM9VWYfMrbOk-28">
          <mxGeometry relative="1" as="geometry" />
        </mxCell>
        <mxCell id="N48SJEr8mM9VWYfMrbOk-19" value="&lt;font style=&quot;font-size: 15px;&quot;&gt;조회&lt;/font&gt;" style="ellipse;whiteSpace=wrap;html=1;" vertex="1" parent="1">
          <mxGeometry x="432.5" y="1084.4000244140625" width="50" height="50" as="geometry" />
        </mxCell>
        <mxCell id="N48SJEr8mM9VWYfMrbOk-20" value="&amp;lt;&amp;lt;include&amp;gt;&amp;gt;" style="endArrow=open;endSize=12;dashed=1;html=1;rounded=0;entryX=0.794;entryY=0.05;entryDx=0;entryDy=0;exitX=0;exitY=1;exitDx=0;exitDy=0;entryPerimeter=0;" edge="1" parent="1" source="N48SJEr8mM9VWYfMrbOk-12" target="N48SJEr8mM9VWYfMrbOk-5">
          <mxGeometry width="160" relative="1" as="geometry">
            <mxPoint x="724.97" y="817.1600244140627" as="sourcePoint" />
            <mxPoint x="632" y="704.4000244140625" as="targetPoint" />
          </mxGeometry>
        </mxCell>
        <mxCell id="N48SJEr8mM9VWYfMrbOk-21" value="" style="edgeStyle=orthogonalEdgeStyle;rounded=0;orthogonalLoop=1;jettySize=auto;html=1;fontSize=12;startSize=8;endSize=8;endArrow=block;endFill=0;" edge="1" parent="1" source="N48SJEr8mM9VWYfMrbOk-22" target="N48SJEr8mM9VWYfMrbOk-8">
          <mxGeometry relative="1" as="geometry" />
        </mxCell>
        <mxCell id="N48SJEr8mM9VWYfMrbOk-22" value="&lt;font style=&quot;font-size: 15px;&quot;&gt;삭제&lt;/font&gt;" style="ellipse;whiteSpace=wrap;html=1;" vertex="1" parent="1">
          <mxGeometry x="1182" y="1074.4000244140625" width="43" height="40" as="geometry" />
        </mxCell>
        <mxCell id="N48SJEr8mM9VWYfMrbOk-23" value="&lt;font style=&quot;font-size: 15px;&quot;&gt;결제&lt;/font&gt;" style="ellipse;whiteSpace=wrap;html=1;" vertex="1" parent="1">
          <mxGeometry x="882" y="594.4000244140625" width="110" height="60" as="geometry" />
        </mxCell>
        <mxCell id="N48SJEr8mM9VWYfMrbOk-24" value="Use" style="html=1;verticalAlign=bottom;endArrow=block;curved=0;rounded=0;entryX=0.008;entryY=0.404;entryDx=0;entryDy=0;exitX=0.5;exitY=0.5;exitDx=0;exitDy=0;exitPerimeter=0;entryPerimeter=0;" edge="1" parent="1" source="N48SJEr8mM9VWYfMrbOk-3" target="N48SJEr8mM9VWYfMrbOk-12">
          <mxGeometry width="80" relative="1" as="geometry">
            <mxPoint x="262" y="934.4000244140625" as="sourcePoint" />
            <mxPoint x="612" y="937.4000244140625" as="targetPoint" />
          </mxGeometry>
        </mxCell>
        <mxCell id="N48SJEr8mM9VWYfMrbOk-25" value="Use" style="html=1;verticalAlign=bottom;endArrow=block;curved=0;rounded=0;entryX=0.017;entryY=0.649;entryDx=0;entryDy=0;entryPerimeter=0;" edge="1" parent="1" source="N48SJEr8mM9VWYfMrbOk-2" target="N48SJEr8mM9VWYfMrbOk-12">
          <mxGeometry x="-0.1402" y="-7" width="80" relative="1" as="geometry">
            <mxPoint x="452" y="1034.4000244140625" as="sourcePoint" />
            <mxPoint x="802" y="1037.4000244140625" as="targetPoint" />
            <mxPoint as="offset" />
          </mxGeometry>
        </mxCell>
        <mxCell id="N48SJEr8mM9VWYfMrbOk-26" value="&amp;lt;&amp;lt;include&amp;gt;&amp;gt;" style="endArrow=open;endSize=12;dashed=1;html=1;rounded=0;exitX=1;exitY=0.5;exitDx=0;exitDy=0;entryX=0;entryY=0.5;entryDx=0;entryDy=0;" edge="1" parent="1" source="N48SJEr8mM9VWYfMrbOk-12" target="N48SJEr8mM9VWYfMrbOk-23">
          <mxGeometry x="0.1411" width="160" relative="1" as="geometry">
            <mxPoint x="602" y="694.4000244140625" as="sourcePoint" />
            <mxPoint x="762" y="694.4000244140625" as="targetPoint" />
            <mxPoint as="offset" />
          </mxGeometry>
        </mxCell>
        <mxCell id="N48SJEr8mM9VWYfMrbOk-27" value="&amp;lt;&amp;lt;include&amp;gt;&amp;gt;" style="endArrow=open;endSize=12;dashed=1;html=1;rounded=0;entryX=1;entryY=1;entryDx=0;entryDy=0;exitX=0.303;exitY=0.056;exitDx=0;exitDy=0;exitPerimeter=0;" edge="1" parent="1" source="N48SJEr8mM9VWYfMrbOk-8" target="N48SJEr8mM9VWYfMrbOk-9">
          <mxGeometry width="160" relative="1" as="geometry">
            <mxPoint x="1264" y="689.4000244140625" as="sourcePoint" />
            <mxPoint x="951" y="414.4000244140625" as="targetPoint" />
          </mxGeometry>
        </mxCell>
        <mxCell id="N48SJEr8mM9VWYfMrbOk-28" value="&lt;font style=&quot;font-size: 15px;&quot;&gt;회원 정보 관리&lt;/font&gt;" style="ellipse;whiteSpace=wrap;html=1;" vertex="1" parent="1">
          <mxGeometry x="540.5" y="1079.4000244140625" width="110" height="60" as="geometry" />
        </mxCell>
        <mxCell id="N48SJEr8mM9VWYfMrbOk-29" value="Use" style="html=1;verticalAlign=bottom;endArrow=block;curved=0;rounded=0;entryX=1;entryY=1;entryDx=0;entryDy=0;exitX=0.5;exitY=0;exitDx=0;exitDy=0;exitPerimeter=0;" edge="1" parent="1" source="N48SJEr8mM9VWYfMrbOk-13" target="N48SJEr8mM9VWYfMrbOk-28">
          <mxGeometry width="80" relative="1" as="geometry">
            <mxPoint x="913.9999999999998" y="1340.5703294669813" as="sourcePoint" />
            <mxPoint x="757" y="695.4000244140625" as="targetPoint" />
          </mxGeometry>
        </mxCell>
        <mxCell id="N48SJEr8mM9VWYfMrbOk-30" value="Use" style="html=1;verticalAlign=bottom;endArrow=block;curved=0;rounded=0;entryX=0.364;entryY=0.98;entryDx=0;entryDy=0;exitX=0.5;exitY=0;exitDx=0;exitDy=0;exitPerimeter=0;entryPerimeter=0;" edge="1" parent="1" source="N48SJEr8mM9VWYfMrbOk-13" target="N48SJEr8mM9VWYfMrbOk-8">
          <mxGeometry x="-0.1979" y="2" width="80" relative="1" as="geometry">
            <mxPoint x="928.9999999999998" y="1324.4000244140625" as="sourcePoint" />
            <mxPoint x="898" y="594.4000244140625" as="targetPoint" />
            <mxPoint as="offset" />
          </mxGeometry>
        </mxCell>
        <mxCell id="N48SJEr8mM9VWYfMrbOk-31" value="Use" style="html=1;verticalAlign=bottom;endArrow=block;curved=0;rounded=0;exitX=0.772;exitY=0.008;exitDx=0;exitDy=0;exitPerimeter=0;entryX=0;entryY=1;entryDx=0;entryDy=0;" edge="1" parent="1" source="N48SJEr8mM9VWYfMrbOk-4" target="N48SJEr8mM9VWYfMrbOk-8">
          <mxGeometry x="0.2373" y="1" width="80" relative="1" as="geometry">
            <mxPoint x="644" y="1324.4000244140625" as="sourcePoint" />
            <mxPoint x="644" y="1124.4000244140625" as="targetPoint" />
            <mxPoint as="offset" />
          </mxGeometry>
        </mxCell>
        <mxCell id="N48SJEr8mM9VWYfMrbOk-32" value="Use" style="html=1;verticalAlign=bottom;endArrow=block;curved=0;rounded=0;entryX=0.5;entryY=1;entryDx=0;entryDy=0;exitX=0.5;exitY=0;exitDx=0;exitDy=0;exitPerimeter=0;" edge="1" parent="1" source="N48SJEr8mM9VWYfMrbOk-4" target="N48SJEr8mM9VWYfMrbOk-28">
          <mxGeometry x="-0.176" y="-5" width="80" relative="1" as="geometry">
            <mxPoint x="644" y="1324.4000244140625" as="sourcePoint" />
            <mxPoint x="632" y="1164.4000244140625" as="targetPoint" />
            <mxPoint as="offset" />
          </mxGeometry>
        </mxCell>
        <mxCell id="N48SJEr8mM9VWYfMrbOk-33" value="&amp;lt;&amp;lt;include&amp;gt;&amp;gt;" style="endArrow=open;endSize=12;dashed=1;html=1;rounded=0;entryX=0;entryY=1;entryDx=0;entryDy=0;exitX=0.926;exitY=0.272;exitDx=0;exitDy=0;exitPerimeter=0;" edge="1" parent="1" source="N48SJEr8mM9VWYfMrbOk-28" target="N48SJEr8mM9VWYfMrbOk-9">
          <mxGeometry width="160" relative="1" as="geometry">
            <mxPoint x="401" y="1067.4000244140625" as="sourcePoint" />
            <mxPoint x="476" y="894.4000244140625" as="targetPoint" />
          </mxGeometry>
        </mxCell>
        <mxCell id="N48SJEr8mM9VWYfMrbOk-34" value="&lt;font style=&quot;font-size: 15px;&quot;&gt;회원 가입&lt;/font&gt;" style="ellipse;whiteSpace=wrap;html=1;" vertex="1" parent="1">
          <mxGeometry x="512" y="434.4000244140625" width="110" height="60" as="geometry" />
        </mxCell>
        <mxCell id="N48SJEr8mM9VWYfMrbOk-35" value="Use" style="html=1;verticalAlign=bottom;endArrow=block;curved=0;rounded=0;entryX=0;entryY=0.5;entryDx=0;entryDy=0;exitX=0.5;exitY=0.5;exitDx=0;exitDy=0;exitPerimeter=0;" edge="1" parent="1" source="N48SJEr8mM9VWYfMrbOk-3" target="N48SJEr8mM9VWYfMrbOk-34">
          <mxGeometry width="80" relative="1" as="geometry">
            <mxPoint x="312" y="474.4000244140625" as="sourcePoint" />
            <mxPoint x="596" y="476.4000244140625" as="targetPoint" />
          </mxGeometry>
        </mxCell>
        <mxCell id="N48SJEr8mM9VWYfMrbOk-36" value="Use" style="html=1;verticalAlign=bottom;endArrow=block;curved=0;rounded=0;entryX=0.361;entryY=0.953;entryDx=0;entryDy=0;exitX=0.5;exitY=0;exitDx=0;exitDy=0;exitPerimeter=0;entryPerimeter=0;" edge="1" parent="1" source="N48SJEr8mM9VWYfMrbOk-4" target="N48SJEr8mM9VWYfMrbOk-9">
          <mxGeometry x="0.1608" width="80" relative="1" as="geometry">
            <mxPoint x="644" y="1324.4000244140625" as="sourcePoint" />
            <mxPoint x="644" y="914.4000244140625" as="targetPoint" />
            <mxPoint as="offset" />
          </mxGeometry>
        </mxCell>
        <mxCell id="N48SJEr8mM9VWYfMrbOk-37" value="Use" style="html=1;verticalAlign=bottom;endArrow=block;curved=0;rounded=0;entryX=0.586;entryY=0.995;entryDx=0;entryDy=0;exitX=0.5;exitY=0;exitDx=0;exitDy=0;exitPerimeter=0;entryPerimeter=0;" edge="1" parent="1" source="N48SJEr8mM9VWYfMrbOk-13" target="N48SJEr8mM9VWYfMrbOk-9">
          <mxGeometry x="0.163" y="1" width="80" relative="1" as="geometry">
            <mxPoint x="928.9999999999998" y="1324.4000244140625" as="sourcePoint" />
            <mxPoint x="994" y="824.4000244140625" as="targetPoint" />
            <mxPoint y="-1" as="offset" />
          </mxGeometry>
        </mxCell>
        <mxCell id="N48SJEr8mM9VWYfMrbOk-38" value="Use" style="html=1;verticalAlign=bottom;endArrow=block;curved=0;rounded=0;entryX=0.425;entryY=0.009;entryDx=0;entryDy=0;entryPerimeter=0;" edge="1" parent="1" source="N48SJEr8mM9VWYfMrbOk-2" target="N48SJEr8mM9VWYfMrbOk-28">
          <mxGeometry width="80" relative="1" as="geometry">
            <mxPoint x="652" y="866.4000244140625" as="sourcePoint" />
            <mxPoint x="852" y="764.4000244140625" as="targetPoint" />
          </mxGeometry>
        </mxCell>
        <mxCell id="N48SJEr8mM9VWYfMrbOk-39" value="" style="edgeStyle=orthogonalEdgeStyle;rounded=0;orthogonalLoop=1;jettySize=auto;html=1;fontSize=12;startSize=8;endSize=8;endArrow=block;endFill=0;" edge="1" parent="1" source="N48SJEr8mM9VWYfMrbOk-40" target="N48SJEr8mM9VWYfMrbOk-5">
          <mxGeometry relative="1" as="geometry" />
        </mxCell>
        <mxCell id="N48SJEr8mM9VWYfMrbOk-40" value="&lt;span style=&quot;font-size: 15px;&quot;&gt;날짜&lt;/span&gt;" style="ellipse;whiteSpace=wrap;html=1;" vertex="1" parent="1">
          <mxGeometry x="554" y="854.4000244140625" width="50" height="50" as="geometry" />
        </mxCell>
        <mxCell id="N48SJEr8mM9VWYfMrbOk-41" value="" style="edgeStyle=orthogonalEdgeStyle;rounded=0;orthogonalLoop=1;jettySize=auto;html=1;fontSize=12;startSize=8;endSize=8;endArrow=block;endFill=0;" edge="1" parent="1" source="N48SJEr8mM9VWYfMrbOk-42" target="N48SJEr8mM9VWYfMrbOk-5">
          <mxGeometry relative="1" as="geometry" />
        </mxCell>
        <mxCell id="N48SJEr8mM9VWYfMrbOk-42" value="&lt;span style=&quot;font-size: 15px;&quot;&gt;금액&lt;/span&gt;" style="ellipse;whiteSpace=wrap;html=1;" vertex="1" parent="1">
          <mxGeometry x="554" y="804.4000244140625" width="50" height="50" as="geometry" />
        </mxCell>
        <mxCell id="N48SJEr8mM9VWYfMrbOk-43" value="" style="edgeStyle=orthogonalEdgeStyle;rounded=0;orthogonalLoop=1;jettySize=auto;html=1;fontSize=12;startSize=8;endSize=8;endArrow=block;endFill=0;" edge="1" parent="1" source="N48SJEr8mM9VWYfMrbOk-44" target="N48SJEr8mM9VWYfMrbOk-5">
          <mxGeometry relative="1" as="geometry" />
        </mxCell>
        <mxCell id="N48SJEr8mM9VWYfMrbOk-44" value="&lt;span style=&quot;font-size: 15px;&quot;&gt;좌석&lt;/span&gt;" style="ellipse;whiteSpace=wrap;html=1;" vertex="1" parent="1">
          <mxGeometry x="554" y="754.4000244140625" width="50" height="50" as="geometry" />
        </mxCell>
        <mxCell id="N48SJEr8mM9VWYfMrbOk-45" value="" style="edgeStyle=orthogonalEdgeStyle;rounded=0;orthogonalLoop=1;jettySize=auto;html=1;fontSize=12;startSize=8;endSize=8;entryX=1;entryY=0.5;entryDx=0;entryDy=0;endArrow=block;endFill=0;" edge="1" parent="1" source="N48SJEr8mM9VWYfMrbOk-46" target="N48SJEr8mM9VWYfMrbOk-8">
          <mxGeometry relative="1" as="geometry" />
        </mxCell>
        <mxCell id="N48SJEr8mM9VWYfMrbOk-46" value="&lt;span style=&quot;font-size: 15px;&quot;&gt;공지&lt;/span&gt;" style="ellipse;whiteSpace=wrap;html=1;" vertex="1" parent="1">
          <mxGeometry x="1182" y="1114.4000244140625" width="43" height="40" as="geometry" />
        </mxCell>
        <mxCell id="N48SJEr8mM9VWYfMrbOk-47" value="" style="edgeStyle=orthogonalEdgeStyle;rounded=0;orthogonalLoop=1;jettySize=auto;html=1;fontSize=12;startSize=8;endSize=8;entryX=1;entryY=0.5;entryDx=0;entryDy=0;endArrow=block;endFill=0;" edge="1" parent="1" source="N48SJEr8mM9VWYfMrbOk-48" target="N48SJEr8mM9VWYfMrbOk-8">
          <mxGeometry relative="1" as="geometry" />
        </mxCell>
        <mxCell id="N48SJEr8mM9VWYfMrbOk-48" value="&lt;span style=&quot;font-size: 15px;&quot;&gt;등록&lt;/span&gt;" style="ellipse;whiteSpace=wrap;html=1;" vertex="1" parent="1">
          <mxGeometry x="1182" y="954.4000244140625" width="43" height="40" as="geometry" />
        </mxCell>
        <mxCell id="N48SJEr8mM9VWYfMrbOk-49" value="" style="edgeStyle=orthogonalEdgeStyle;rounded=0;orthogonalLoop=1;jettySize=auto;html=1;fontSize=12;startSize=8;endSize=8;endArrow=block;endFill=0;" edge="1" parent="1" source="N48SJEr8mM9VWYfMrbOk-50" target="N48SJEr8mM9VWYfMrbOk-28">
          <mxGeometry relative="1" as="geometry" />
        </mxCell>
        <mxCell id="N48SJEr8mM9VWYfMrbOk-50" value="&lt;font style=&quot;font-size: 15px;&quot;&gt;삭제&lt;/font&gt;" style="ellipse;whiteSpace=wrap;html=1;" vertex="1" parent="1">
          <mxGeometry x="432.5" y="1034.4000244140625" width="50" height="50" as="geometry" />
        </mxCell>
        <mxCell id="N48SJEr8mM9VWYfMrbOk-51" value="&lt;span style=&quot;font-size: 15px;&quot;&gt;예매&lt;/span&gt;&lt;div&gt;&lt;span style=&quot;font-size: 15px;&quot;&gt;취소&lt;/span&gt;&lt;/div&gt;" style="ellipse;whiteSpace=wrap;html=1;" vertex="1" parent="1">
          <mxGeometry x="663.5" y="724.4000244140625" width="50" height="50" as="geometry" />
        </mxCell>
        <mxCell id="N48SJEr8mM9VWYfMrbOk-52" value="&lt;span style=&quot;font-size: 15px;&quot;&gt;내역&lt;br&gt;조회&lt;/span&gt;" style="ellipse;whiteSpace=wrap;html=1;" vertex="1" parent="1">
          <mxGeometry x="612" y="724.4000244140625" width="50" height="50" as="geometry" />
        </mxCell>
        <mxCell id="N48SJEr8mM9VWYfMrbOk-53" value="&amp;lt;&amp;lt;extend&amp;gt;&amp;gt;" style="endArrow=open;endSize=12;dashed=1;html=1;rounded=0;exitX=0.307;exitY=0.077;exitDx=0;exitDy=0;exitPerimeter=0;entryX=0.602;entryY=0.967;entryDx=0;entryDy=0;entryPerimeter=0;" edge="1" parent="1" source="N48SJEr8mM9VWYfMrbOk-52" target="N48SJEr8mM9VWYfMrbOk-12">
          <mxGeometry x="0.1411" width="160" relative="1" as="geometry">
            <mxPoint x="573.9499999999999" y="587.3000244140626" as="sourcePoint" />
            <mxPoint x="571" y="654.4000244140625" as="targetPoint" />
            <mxPoint as="offset" />
          </mxGeometry>
        </mxCell>
        <mxCell id="N48SJEr8mM9VWYfMrbOk-54" value="&amp;lt;&amp;lt;extend&amp;gt;&amp;gt;" style="endArrow=open;endSize=12;dashed=1;html=1;rounded=0;entryX=1;entryY=1;entryDx=0;entryDy=0;exitX=0;exitY=0;exitDx=0;exitDy=0;" edge="1" parent="1" source="N48SJEr8mM9VWYfMrbOk-51" target="N48SJEr8mM9VWYfMrbOk-12">
          <mxGeometry x="-0.571" y="-1" width="160" relative="1" as="geometry">
            <mxPoint x="684.0522882181926" y="680.9158584335896" as="sourcePoint" />
            <mxPoint x="699" y="634.4000244140623" as="targetPoint" />
            <mxPoint as="offset" />
          </mxGeometry>
        </mxCell>
        <mxCell id="N48SJEr8mM9VWYfMrbOk-55" value="&lt;font style=&quot;font-size: 15px;&quot;&gt;키워드&lt;/font&gt;" style="ellipse;whiteSpace=wrap;html=1;" vertex="1" parent="1">
          <mxGeometry x="293.5" y="1074.4" width="42" height="44.4" as="geometry" />
        </mxCell>
        <mxCell id="N48SJEr8mM9VWYfMrbOk-56" value="&lt;font style=&quot;font-size: 15px;&quot;&gt;전체&lt;/font&gt;" style="ellipse;whiteSpace=wrap;html=1;" vertex="1" parent="1">
          <mxGeometry x="293.5" y="1118.8000000000002" width="42" height="45.6" as="geometry" />
        </mxCell>
        <mxCell id="N48SJEr8mM9VWYfMrbOk-57" value="&amp;lt;&amp;lt;Extend&amp;gt;&amp;gt;" style="endArrow=open;endSize=12;dashed=1;html=1;rounded=0;fontSize=12;curved=1;exitX=1;exitY=0.5;exitDx=0;exitDy=0;entryX=0.085;entryY=0.398;entryDx=0;entryDy=0;entryPerimeter=0;" edge="1" parent="1" source="N48SJEr8mM9VWYfMrbOk-55" target="N48SJEr8mM9VWYfMrbOk-19">
          <mxGeometry width="160" relative="1" as="geometry">
            <mxPoint x="348" y="1004.4000244140625" as="sourcePoint" />
            <mxPoint x="508" y="1004.4000244140625" as="targetPoint" />
          </mxGeometry>
        </mxCell>
        <mxCell id="N48SJEr8mM9VWYfMrbOk-58" value="&amp;lt;&amp;lt;Extend&amp;gt;&amp;gt;" style="endArrow=open;endSize=12;dashed=1;html=1;rounded=0;fontSize=12;curved=1;exitX=1.071;exitY=0.631;exitDx=0;exitDy=0;exitPerimeter=0;entryX=0.057;entryY=0.77;entryDx=0;entryDy=0;entryPerimeter=0;" edge="1" parent="1" source="N48SJEr8mM9VWYfMrbOk-56" target="N48SJEr8mM9VWYfMrbOk-19">
          <mxGeometry width="160" relative="1" as="geometry">
            <mxPoint x="282" y="1184.4000244140625" as="sourcePoint" />
            <mxPoint x="442" y="1184.4000244140625" as="targetPoint" />
          </mxGeometry>
        </mxCell>
        <mxCell id="N48SJEr8mM9VWYfMrbOk-59" value="&lt;font style=&quot;font-size: 15px;&quot;&gt;전체&lt;/font&gt;" style="ellipse;whiteSpace=wrap;html=1;" vertex="1" parent="1">
          <mxGeometry x="1330" y="979.4000244140625" width="40" height="40" as="geometry" />
        </mxCell>
        <mxCell id="N48SJEr8mM9VWYfMrbOk-60" value="&lt;span style=&quot;font-size: 15px;&quot;&gt;키워드&lt;/span&gt;" style="ellipse;whiteSpace=wrap;html=1;" vertex="1" parent="1">
          <mxGeometry x="1330" y="1019.4000244140625" width="40" height="40" as="geometry" />
        </mxCell>
        <mxCell id="N48SJEr8mM9VWYfMrbOk-61" value="&amp;lt;&amp;lt;Extend&amp;gt;&amp;gt;" style="endArrow=open;endSize=12;dashed=1;html=1;rounded=0;fontSize=12;curved=1;exitX=0;exitY=0.5;exitDx=0;exitDy=0;entryX=0.965;entryY=0.679;entryDx=0;entryDy=0;entryPerimeter=0;" edge="1" parent="1" source="N48SJEr8mM9VWYfMrbOk-60" target="N48SJEr8mM9VWYfMrbOk-15">
          <mxGeometry width="160" relative="1" as="geometry">
            <mxPoint x="1104" y="904.4000244140625" as="sourcePoint" />
            <mxPoint x="1207" y="919.4000244140625" as="targetPoint" />
          </mxGeometry>
        </mxCell>
        <mxCell id="N48SJEr8mM9VWYfMrbOk-62" value="&amp;lt;&amp;lt;Extend&amp;gt;&amp;gt;" style="endArrow=open;endSize=12;dashed=1;html=1;rounded=0;fontSize=12;curved=1;exitX=0;exitY=0.5;exitDx=0;exitDy=0;entryX=0.926;entryY=0.325;entryDx=0;entryDy=0;entryPerimeter=0;" edge="1" parent="1" source="N48SJEr8mM9VWYfMrbOk-59" target="N48SJEr8mM9VWYfMrbOk-15">
          <mxGeometry width="160" relative="1" as="geometry">
            <mxPoint x="1094" y="964.4000244140625" as="sourcePoint" />
            <mxPoint x="1197" y="979.4000244140625" as="targetPoint" />
          </mxGeometry>
        </mxCell>
        <mxCell id="N48SJEr8mM9VWYfMrbOk-63" value="&lt;font style=&quot;font-size: 15px;&quot;&gt;비회원&lt;br&gt;환불&lt;/font&gt;" style="ellipse;whiteSpace=wrap;html=1;" vertex="1" parent="1">
          <mxGeometry x="713.5" y="494.4000244140625" width="63" height="60" as="geometry" />
        </mxCell>
        <mxCell id="N48SJEr8mM9VWYfMrbOk-64" value="&amp;lt;&amp;lt;include&amp;gt;&amp;gt;" style="endArrow=open;endSize=12;dashed=1;html=1;rounded=0;entryX=0.73;entryY=0;entryDx=0;entryDy=0;exitX=0.5;exitY=1;exitDx=0;exitDy=0;entryPerimeter=0;" edge="1" parent="1" source="N48SJEr8mM9VWYfMrbOk-63" target="N48SJEr8mM9VWYfMrbOk-51">
          <mxGeometry x="0.1411" width="160" relative="1" as="geometry">
            <mxPoint x="612" y="814.4000244140625" as="sourcePoint" />
            <mxPoint x="975" y="754.4000244140625" as="targetPoint" />
            <mxPoint as="offset" />
          </mxGeometry>
        </mxCell>
        <mxCell id="N48SJEr8mM9VWYfMrbOk-65" value="&lt;span style=&quot;font-size: 15px;&quot;&gt;회원&lt;/span&gt;&lt;div&gt;&lt;span style=&quot;font-size: 15px;&quot;&gt;환불&lt;/span&gt;&lt;/div&gt;" style="ellipse;whiteSpace=wrap;html=1;" vertex="1" parent="1">
          <mxGeometry x="650.5" y="929.4000244140625" width="63" height="60" as="geometry" />
        </mxCell>
        <mxCell id="N48SJEr8mM9VWYfMrbOk-66" value="&amp;lt;&amp;lt;include&amp;gt;&amp;gt;" style="endArrow=open;endSize=12;dashed=1;html=1;rounded=0;exitX=0.976;exitY=0.35;exitDx=0;exitDy=0;entryX=0;entryY=0.5;entryDx=0;entryDy=0;exitPerimeter=0;" edge="1" parent="1" source="N48SJEr8mM9VWYfMrbOk-65" target="N48SJEr8mM9VWYfMrbOk-9">
          <mxGeometry x="0.1411" width="160" relative="1" as="geometry">
            <mxPoint x="792" y="874.4000244140625" as="sourcePoint" />
            <mxPoint x="815" y="804.4000244140625" as="targetPoint" />
            <mxPoint as="offset" />
          </mxGeometry>
        </mxCell>
        <mxCell id="N48SJEr8mM9VWYfMrbOk-67" value="Use" style="html=1;verticalAlign=bottom;endArrow=block;curved=0;rounded=0;entryX=0.697;entryY=0.981;entryDx=0;entryDy=0;entryPerimeter=0;exitX=0.5;exitY=0;exitDx=0;exitDy=0;exitPerimeter=0;" edge="1" parent="1" source="N48SJEr8mM9VWYfMrbOk-13" target="N48SJEr8mM9VWYfMrbOk-65">
          <mxGeometry x="0.0512" y="4" width="80" relative="1" as="geometry">
            <mxPoint x="922" y="1314.4000244140625" as="sourcePoint" />
            <mxPoint x="922" y="1144.4000244140625" as="targetPoint" />
            <mxPoint as="offset" />
          </mxGeometry>
        </mxCell>
        <mxCell id="N48SJEr8mM9VWYfMrbOk-68" value="Use" style="html=1;verticalAlign=bottom;endArrow=block;curved=0;rounded=0;entryX=0.217;entryY=0.064;entryDx=0;entryDy=0;entryPerimeter=0;" edge="1" parent="1" source="N48SJEr8mM9VWYfMrbOk-2" target="N48SJEr8mM9VWYfMrbOk-65">
          <mxGeometry x="0.1608" width="80" relative="1" as="geometry">
            <mxPoint x="383.66" y="1340.9000244140625" as="sourcePoint" />
            <mxPoint x="584.3395016987542" y="897.9000244140625" as="targetPoint" />
            <mxPoint as="offset" />
          </mxGeometry>
        </mxCell>
        <mxCell id="N48SJEr8mM9VWYfMrbOk-69" value="Use" style="html=1;verticalAlign=bottom;endArrow=block;curved=0;rounded=0;entryX=0.5;entryY=1;entryDx=0;entryDy=0;" edge="1" parent="1" target="N48SJEr8mM9VWYfMrbOk-65">
          <mxGeometry x="0.1608" width="80" relative="1" as="geometry">
            <mxPoint x="642" y="1314.4000244140625" as="sourcePoint" />
            <mxPoint x="681" y="954.4000244140625" as="targetPoint" />
            <mxPoint as="offset" />
          </mxGeometry>
        </mxCell>
        <mxCell id="N48SJEr8mM9VWYfMrbOk-70" value="Use" style="html=1;verticalAlign=bottom;endArrow=block;curved=0;rounded=0;entryX=0;entryY=0;entryDx=0;entryDy=0;exitX=0.5;exitY=0.5;exitDx=0;exitDy=0;exitPerimeter=0;" edge="1" parent="1" source="N48SJEr8mM9VWYfMrbOk-3" target="N48SJEr8mM9VWYfMrbOk-63">
          <mxGeometry width="80" relative="1" as="geometry">
            <mxPoint x="332" y="564.4000244140625" as="sourcePoint" />
            <mxPoint x="617" y="514.4000244140625" as="targetPoint" />
          </mxGeometry>
        </mxCell>
        <mxCell id="N48SJEr8mM9VWYfMrbOk-71" value="" style="edgeStyle=orthogonalEdgeStyle;rounded=0;orthogonalLoop=1;jettySize=auto;html=1;fontSize=12;startSize=8;endSize=8;endArrow=block;endFill=0;" edge="1" parent="1" source="N48SJEr8mM9VWYfMrbOk-72" target="N48SJEr8mM9VWYfMrbOk-65">
          <mxGeometry relative="1" as="geometry" />
        </mxCell>
        <mxCell id="N48SJEr8mM9VWYfMrbOk-72" value="&lt;font style=&quot;font-size: 15px;&quot;&gt;처리&lt;/font&gt;" style="ellipse;whiteSpace=wrap;html=1;" vertex="1" parent="1">
          <mxGeometry x="569" y="979.4000244140625" width="40" height="40" as="geometry" />
        </mxCell>
        <mxCell id="N48SJEr8mM9VWYfMrbOk-73" value="" style="edgeStyle=orthogonalEdgeStyle;rounded=0;orthogonalLoop=1;jettySize=auto;html=1;fontSize=12;startSize=8;endSize=8;endArrow=block;endFill=0;" edge="1" parent="1" source="N48SJEr8mM9VWYfMrbOk-74" target="N48SJEr8mM9VWYfMrbOk-65">
          <mxGeometry relative="1" as="geometry" />
        </mxCell>
        <mxCell id="N48SJEr8mM9VWYfMrbOk-74" value="&lt;font style=&quot;font-size: 15px;&quot;&gt;신청&lt;/font&gt;" style="ellipse;whiteSpace=wrap;html=1;" vertex="1" parent="1">
          <mxGeometry x="569" y="939.4000244140625" width="40" height="40" as="geometry" />
        </mxCell>
        <mxCell id="N48SJEr8mM9VWYfMrbOk-75" value="&amp;lt;&amp;lt;include&amp;gt;&amp;gt;" style="endArrow=open;endSize=12;dashed=1;html=1;rounded=0;entryX=0.5;entryY=1;entryDx=0;entryDy=0;exitX=0.5;exitY=0;exitDx=0;exitDy=0;" edge="1" parent="1" source="N48SJEr8mM9VWYfMrbOk-65" target="N48SJEr8mM9VWYfMrbOk-51">
          <mxGeometry x="0.1411" width="160" relative="1" as="geometry">
            <mxPoint x="847" y="784.4000244140625" as="sourcePoint" />
            <mxPoint x="842" y="954.4000244140625" as="targetPoint" />
            <mxPoint as="offset" />
          </mxGeometry>
        </mxCell>
        <mxCell id="N48SJEr8mM9VWYfMrbOk-76" value="&lt;font style=&quot;font-size: 15px;&quot;&gt;비회원&lt;/font&gt;&lt;div&gt;&lt;span style=&quot;font-size: 15px;&quot;&gt;결제 정보&lt;/span&gt;&lt;/div&gt;" style="ellipse;whiteSpace=wrap;html=1;" vertex="1" parent="1">
          <mxGeometry x="882" y="464.4000244140625" width="110" height="60" as="geometry" />
        </mxCell>
        <mxCell id="N48SJEr8mM9VWYfMrbOk-77" value="&amp;lt;&amp;lt;include&amp;gt;&amp;gt;" style="endArrow=open;endSize=12;dashed=1;html=1;rounded=0;exitX=1;exitY=0.5;exitDx=0;exitDy=0;entryX=0;entryY=0.5;entryDx=0;entryDy=0;" edge="1" parent="1" source="N48SJEr8mM9VWYfMrbOk-63" target="N48SJEr8mM9VWYfMrbOk-76">
          <mxGeometry x="0.1411" width="160" relative="1" as="geometry">
            <mxPoint x="802" y="544.4000244140625" as="sourcePoint" />
            <mxPoint x="1003" y="544.4000244140625" as="targetPoint" />
            <mxPoint as="offset" />
          </mxGeometry>
        </mxCell>
        <mxCell id="N48SJEr8mM9VWYfMrbOk-78" value="&amp;lt;&amp;lt;include&amp;gt;&amp;gt;" style="endArrow=open;endSize=12;dashed=1;html=1;rounded=0;entryX=0.5;entryY=0;entryDx=0;entryDy=0;exitX=0.5;exitY=1;exitDx=0;exitDy=0;" edge="1" parent="1" source="N48SJEr8mM9VWYfMrbOk-76" target="N48SJEr8mM9VWYfMrbOk-23">
          <mxGeometry x="0.1411" width="160" relative="1" as="geometry">
            <mxPoint x="1127" y="584.4000244140625" as="sourcePoint" />
            <mxPoint x="1122" y="754.4000244140625" as="targetPoint" />
            <mxPoint as="offset" />
          </mxGeometry>
        </mxCell>
        <mxCell id="N48SJEr8mM9VWYfMrbOk-79" value="" style="edgeStyle=orthogonalEdgeStyle;rounded=0;orthogonalLoop=1;jettySize=auto;html=1;fontSize=12;startSize=8;endSize=8;endArrow=block;endFill=0;" edge="1" parent="1" source="N48SJEr8mM9VWYfMrbOk-80" target="N48SJEr8mM9VWYfMrbOk-63">
          <mxGeometry relative="1" as="geometry">
            <Array as="points">
              <mxPoint x="692" y="564.4000244140625" />
              <mxPoint x="692" y="524.4000244140625" />
            </Array>
          </mxGeometry>
        </mxCell>
        <mxCell id="N48SJEr8mM9VWYfMrbOk-80" value="&lt;font style=&quot;font-size: 15px;&quot;&gt;신청&lt;/font&gt;" style="ellipse;whiteSpace=wrap;html=1;" vertex="1" parent="1">
          <mxGeometry x="642" y="544.4000244140625" width="40" height="40" as="geometry" />
        </mxCell>
        <mxCell id="N48SJEr8mM9VWYfMrbOk-81" value="" style="edgeStyle=orthogonalEdgeStyle;rounded=0;orthogonalLoop=1;jettySize=auto;html=1;fontSize=12;startSize=8;endSize=8;endArrow=block;endFill=0;" edge="1" parent="1" source="N48SJEr8mM9VWYfMrbOk-82" target="N48SJEr8mM9VWYfMrbOk-63">
          <mxGeometry relative="1" as="geometry" />
        </mxCell>
        <mxCell id="N48SJEr8mM9VWYfMrbOk-82" value="&lt;font style=&quot;font-size: 15px;&quot;&gt;승인&lt;/font&gt;" style="ellipse;whiteSpace=wrap;html=1;" vertex="1" parent="1">
          <mxGeometry x="642" y="504.4000244140625" width="40" height="40" as="geometry" />
        </mxCell>
        <mxCell id="N48SJEr8mM9VWYfMrbOk-83" value="Use" style="html=1;verticalAlign=bottom;endArrow=block;curved=0;rounded=0;fontSize=12;startSize=8;endSize=8;exitX=1;exitY=0.3333333333333333;exitDx=0;exitDy=0;exitPerimeter=0;entryX=0.667;entryY=0.025;entryDx=0;entryDy=0;entryPerimeter=0;" edge="1" parent="1" source="N48SJEr8mM9VWYfMrbOk-13" target="N48SJEr8mM9VWYfMrbOk-63">
          <mxGeometry x="-0.1352" width="80" relative="1" as="geometry">
            <mxPoint x="842" y="1144.4000244140625" as="sourcePoint" />
            <mxPoint x="312" y="354.4000244140625" as="targetPoint" />
            <Array as="points">
              <mxPoint x="1432" y="1344.4000244140625" />
              <mxPoint x="1432" y="374.4000244140625" />
              <mxPoint x="756" y="374.4000244140625" />
            </Array>
            <mxPoint as="offset" />
          </mxGeometry>
        </mxCell>
        <mxCell id="N48SJEr8mM9VWYfMrbOk-84" value="" style="edgeStyle=orthogonalEdgeStyle;rounded=0;orthogonalLoop=1;jettySize=auto;html=1;fontSize=12;startSize=8;endSize=8;endArrow=block;endFill=0;" edge="1" parent="1" source="N48SJEr8mM9VWYfMrbOk-85" target="N48SJEr8mM9VWYfMrbOk-23">
          <mxGeometry relative="1" as="geometry">
            <Array as="points">
              <mxPoint x="964" y="684.4000244140625" />
              <mxPoint x="937" y="684.4000244140625" />
            </Array>
          </mxGeometry>
        </mxCell>
        <mxCell id="N48SJEr8mM9VWYfMrbOk-85" value="&lt;span style=&quot;font-size: 15px;&quot;&gt;결제&lt;/span&gt;&lt;div&gt;&lt;span style=&quot;font-size: 15px;&quot;&gt;내역&lt;/span&gt;&lt;/div&gt;" style="ellipse;whiteSpace=wrap;html=1;" vertex="1" parent="1">
          <mxGeometry x="939" y="694.4000244140625" width="50" height="50" as="geometry" />
        </mxCell>
        <mxCell id="N48SJEr8mM9VWYfMrbOk-86" value="" style="edgeStyle=orthogonalEdgeStyle;rounded=0;orthogonalLoop=1;jettySize=auto;html=1;fontSize=12;startSize=8;endSize=8;endArrow=block;endFill=0;" edge="1" parent="1" source="N48SJEr8mM9VWYfMrbOk-87" target="N48SJEr8mM9VWYfMrbOk-23">
          <mxGeometry relative="1" as="geometry">
            <Array as="points">
              <mxPoint x="913" y="684.4000244140625" />
              <mxPoint x="937" y="684.4000244140625" />
            </Array>
          </mxGeometry>
        </mxCell>
        <mxCell id="N48SJEr8mM9VWYfMrbOk-87" value="&lt;span style=&quot;font-size: 15px;&quot;&gt;결제&lt;/span&gt;&lt;div&gt;&lt;span style=&quot;font-size: 15px;&quot;&gt;수단&lt;/span&gt;&lt;/div&gt;" style="ellipse;whiteSpace=wrap;html=1;" vertex="1" parent="1">
          <mxGeometry x="888" y="694.4000244140625" width="50" height="50" as="geometry" />
        </mxCell>
        <mxCell id="N48SJEr8mM9VWYfMrbOk-88" value="&lt;font style=&quot;font-size: 15px;&quot;&gt;영수증 발급&lt;/font&gt;" style="ellipse;whiteSpace=wrap;html=1;" vertex="1" parent="1">
          <mxGeometry x="1082" y="689.4000244140625" width="110" height="60" as="geometry" />
        </mxCell>
        <mxCell id="N48SJEr8mM9VWYfMrbOk-89" value="&amp;lt;&amp;lt;Extend&amp;gt;&amp;gt;" style="endArrow=open;endSize=12;dashed=1;html=1;rounded=0;fontSize=12;curved=1;entryX=1;entryY=0.5;entryDx=0;entryDy=0;exitX=0;exitY=0.5;exitDx=0;exitDy=0;" edge="1" parent="1" source="N48SJEr8mM9VWYfMrbOk-88" target="N48SJEr8mM9VWYfMrbOk-85">
          <mxGeometry width="160" relative="1" as="geometry">
            <mxPoint x="712" y="834.4000244140625" as="sourcePoint" />
            <mxPoint x="872" y="834.4000244140625" as="targetPoint" />
          </mxGeometry>
        </mxCell>
        <mxCell id="N48SJEr8mM9VWYfMrbOk-90" value="" style="edgeStyle=orthogonalEdgeStyle;rounded=0;orthogonalLoop=1;jettySize=auto;html=1;endArrow=block;endFill=0;" edge="1" parent="1" source="N48SJEr8mM9VWYfMrbOk-91" target="N48SJEr8mM9VWYfMrbOk-88">
          <mxGeometry relative="1" as="geometry" />
        </mxCell>
        <mxCell id="N48SJEr8mM9VWYfMrbOk-91" value="&lt;span style=&quot;font-size: 15px;&quot;&gt;출력&lt;/span&gt;" style="ellipse;whiteSpace=wrap;html=1;" vertex="1" parent="1">
          <mxGeometry x="1241" y="669.4000244140625" width="50" height="50" as="geometry" />
        </mxCell>
        <mxCell id="N48SJEr8mM9VWYfMrbOk-92" value="" style="edgeStyle=orthogonalEdgeStyle;rounded=0;orthogonalLoop=1;jettySize=auto;html=1;endArrow=block;endFill=0;" edge="1" parent="1" source="N48SJEr8mM9VWYfMrbOk-93" target="N48SJEr8mM9VWYfMrbOk-88">
          <mxGeometry relative="1" as="geometry" />
        </mxCell>
        <mxCell id="N48SJEr8mM9VWYfMrbOk-93" value="&lt;span style=&quot;font-size: 15px;&quot;&gt;이메일&lt;/span&gt;&lt;div&gt;&lt;span style=&quot;font-size: 15px;&quot;&gt;발급&lt;/span&gt;&lt;/div&gt;" style="ellipse;whiteSpace=wrap;html=1;" vertex="1" parent="1">
          <mxGeometry x="1241" y="719.4000244140625" width="50" height="50" as="geometry" />
        </mxCell>
      </root>
    </mxGraphModel>
  </diagram>
  <diagram name="명세서" id="fUPDhEltCPbCtB5M7yaY">
    <mxGraphModel dx="1237" dy="1584" grid="1" gridSize="10" guides="1" tooltips="1" connect="1" arrows="1" fold="1" page="0" pageScale="1" pageWidth="827" pageHeight="1169" math="0" shadow="0">
      <root>
        <mxCell id="0" />
        <mxCell id="1" parent="0" />
        <mxCell id="d-kg8OgVA_0q-SpX9qxt-2" value="약관동의&lt;div&gt;본인인증&lt;/div&gt;&lt;div&gt;한글 이름&lt;/div&gt;&lt;div&gt;영어 이름&lt;/div&gt;&lt;div&gt;이이디&lt;/div&gt;&lt;div&gt;비밀번호&lt;/div&gt;&lt;div&gt;생년월인&lt;/div&gt;&lt;div&gt;성별&lt;/div&gt;&lt;div&gt;이메일주소&lt;/div&gt;&lt;div&gt;휴대전화번호&lt;/div&gt;&lt;div&gt;거주국가&lt;/div&gt;" style="text;html=1;align=center;verticalAlign=middle;resizable=0;points=[];autosize=1;strokeColor=none;fillColor=none;fontSize=16;" parent="1" vertex="1">
          <mxGeometry x="550" y="-110" width="106" height="223" as="geometry" />
        </mxCell>
        <mxCell id="XE_Ec_hiV0-5Nvh7rK8N-1" value="&lt;div&gt;&amp;lt;&amp;lt;유스케이스 명세서&amp;gt;&amp;gt;&lt;/div&gt;유스케이스명 : 회원가입" style="shape=table;startSize=40;container=1;collapsible=1;childLayout=tableLayout;fixedRows=1;rowLines=0;fontStyle=1;align=center;resizeLast=1;html=1;" parent="1" vertex="1">
          <mxGeometry x="-110" y="-470" width="630" height="1000" as="geometry" />
        </mxCell>
        <mxCell id="XE_Ec_hiV0-5Nvh7rK8N-2" value="" style="shape=tableRow;horizontal=0;startSize=0;swimlaneHead=0;swimlaneBody=0;fillColor=none;collapsible=0;dropTarget=0;points=[[0,0.5],[1,0.5]];portConstraint=eastwest;top=0;left=0;right=0;bottom=1;strokeColor=default;verticalAlign=middle;fontStyle=0" parent="XE_Ec_hiV0-5Nvh7rK8N-1" vertex="1">
          <mxGeometry y="40" width="630" height="30" as="geometry" />
        </mxCell>
        <mxCell id="XE_Ec_hiV0-5Nvh7rK8N-3" value="목표" style="shape=partialRectangle;connectable=0;fillColor=none;top=0;left=0;bottom=0;right=0;fontStyle=1;overflow=hidden;whiteSpace=wrap;html=1;" parent="XE_Ec_hiV0-5Nvh7rK8N-2" vertex="1">
          <mxGeometry width="60" height="30" as="geometry">
            <mxRectangle width="60" height="30" as="alternateBounds" />
          </mxGeometry>
        </mxCell>
        <mxCell id="XE_Ec_hiV0-5Nvh7rK8N-4" value="&lt;span style=&quot;font-weight: 400; text-wrap: nowrap;&quot;&gt;비회원이 회원가입을 할 수 있도록 시스템을 통해 회원가입 절차를 완료한다&lt;/span&gt;" style="shape=partialRectangle;connectable=0;fillColor=none;top=0;left=0;bottom=0;right=0;align=left;spacingLeft=6;fontStyle=1;overflow=hidden;whiteSpace=wrap;html=1;" parent="XE_Ec_hiV0-5Nvh7rK8N-2" vertex="1">
          <mxGeometry x="60" width="570" height="30" as="geometry">
            <mxRectangle width="570" height="30" as="alternateBounds" />
          </mxGeometry>
        </mxCell>
        <mxCell id="XE_Ec_hiV0-5Nvh7rK8N-5" value="" style="shape=tableRow;horizontal=0;startSize=0;swimlaneHead=0;swimlaneBody=0;fillColor=none;collapsible=0;dropTarget=0;points=[[0,0.5],[1,0.5]];portConstraint=eastwest;top=0;left=0;right=0;bottom=1;" parent="XE_Ec_hiV0-5Nvh7rK8N-1" vertex="1">
          <mxGeometry y="70" width="630" height="30" as="geometry" />
        </mxCell>
        <mxCell id="XE_Ec_hiV0-5Nvh7rK8N-6" value="엑터" style="shape=partialRectangle;connectable=0;fillColor=none;top=0;left=0;bottom=0;right=0;fontStyle=1;overflow=hidden;whiteSpace=wrap;html=1;" parent="XE_Ec_hiV0-5Nvh7rK8N-5" vertex="1">
          <mxGeometry width="60" height="30" as="geometry">
            <mxRectangle width="60" height="30" as="alternateBounds" />
          </mxGeometry>
        </mxCell>
        <mxCell id="XE_Ec_hiV0-5Nvh7rK8N-7" value="비회원" style="shape=partialRectangle;connectable=0;fillColor=none;top=0;left=0;bottom=0;right=0;align=left;spacingLeft=6;fontStyle=0;overflow=hidden;whiteSpace=wrap;html=1;" parent="XE_Ec_hiV0-5Nvh7rK8N-5" vertex="1">
          <mxGeometry x="60" width="570" height="30" as="geometry">
            <mxRectangle width="570" height="30" as="alternateBounds" />
          </mxGeometry>
        </mxCell>
        <mxCell id="XE_Ec_hiV0-5Nvh7rK8N-8" value="" style="shape=tableRow;horizontal=0;startSize=0;swimlaneHead=0;swimlaneBody=0;fillColor=none;collapsible=0;dropTarget=0;points=[[0,0.5],[1,0.5]];portConstraint=eastwest;top=0;left=0;right=0;bottom=1;" parent="XE_Ec_hiV0-5Nvh7rK8N-1" vertex="1">
          <mxGeometry y="100" width="630" height="30" as="geometry" />
        </mxCell>
        <mxCell id="XE_Ec_hiV0-5Nvh7rK8N-9" value="사전 조건" style="shape=partialRectangle;connectable=0;fillColor=none;top=0;left=0;bottom=0;right=0;fontStyle=1;overflow=hidden;whiteSpace=wrap;html=1;" parent="XE_Ec_hiV0-5Nvh7rK8N-8" vertex="1">
          <mxGeometry width="60" height="30" as="geometry">
            <mxRectangle width="60" height="30" as="alternateBounds" />
          </mxGeometry>
        </mxCell>
        <mxCell id="XE_Ec_hiV0-5Nvh7rK8N-10" value="메인페이지에서 회원가입 버튼을 클릭하여 회원가입 페이지로 이동한다" style="shape=partialRectangle;connectable=0;fillColor=none;top=0;left=0;bottom=0;right=0;align=left;spacingLeft=6;fontStyle=0;overflow=hidden;whiteSpace=wrap;html=1;" parent="XE_Ec_hiV0-5Nvh7rK8N-8" vertex="1">
          <mxGeometry x="60" width="570" height="30" as="geometry">
            <mxRectangle width="570" height="30" as="alternateBounds" />
          </mxGeometry>
        </mxCell>
        <mxCell id="XE_Ec_hiV0-5Nvh7rK8N-11" value="" style="shape=tableRow;horizontal=0;startSize=0;swimlaneHead=0;swimlaneBody=0;fillColor=none;collapsible=0;dropTarget=0;points=[[0,0.5],[1,0.5]];portConstraint=eastwest;top=0;left=0;right=0;bottom=1;" parent="XE_Ec_hiV0-5Nvh7rK8N-1" vertex="1">
          <mxGeometry y="130" width="630" height="30" as="geometry" />
        </mxCell>
        <mxCell id="XE_Ec_hiV0-5Nvh7rK8N-12" value="사후 처리" style="shape=partialRectangle;connectable=0;fillColor=none;top=0;left=0;bottom=0;right=0;fontStyle=1;overflow=hidden;whiteSpace=wrap;html=1;" parent="XE_Ec_hiV0-5Nvh7rK8N-11" vertex="1">
          <mxGeometry width="60" height="30" as="geometry">
            <mxRectangle width="60" height="30" as="alternateBounds" />
          </mxGeometry>
        </mxCell>
        <mxCell id="XE_Ec_hiV0-5Nvh7rK8N-13" value="회원 정상 가입 이후 로그인 페이지로 이동" style="shape=partialRectangle;connectable=0;fillColor=none;top=0;left=0;bottom=0;right=0;align=left;spacingLeft=6;fontStyle=0;overflow=hidden;whiteSpace=wrap;html=1;" parent="XE_Ec_hiV0-5Nvh7rK8N-11" vertex="1">
          <mxGeometry x="60" width="570" height="30" as="geometry">
            <mxRectangle width="570" height="30" as="alternateBounds" />
          </mxGeometry>
        </mxCell>
        <mxCell id="XE_Ec_hiV0-5Nvh7rK8N-14" value="" style="shape=tableRow;horizontal=0;startSize=0;swimlaneHead=0;swimlaneBody=0;fillColor=none;collapsible=0;dropTarget=0;points=[[0,0.5],[1,0.5]];portConstraint=eastwest;top=0;left=0;right=0;bottom=1;" parent="XE_Ec_hiV0-5Nvh7rK8N-1" vertex="1">
          <mxGeometry y="160" width="630" height="320" as="geometry" />
        </mxCell>
        <mxCell id="XE_Ec_hiV0-5Nvh7rK8N-15" value="기본흐름" style="shape=partialRectangle;connectable=0;fillColor=none;top=0;left=0;bottom=0;right=0;fontStyle=1;overflow=hidden;whiteSpace=wrap;html=1;" parent="XE_Ec_hiV0-5Nvh7rK8N-14" vertex="1">
          <mxGeometry width="60" height="320" as="geometry">
            <mxRectangle width="60" height="320" as="alternateBounds" />
          </mxGeometry>
        </mxCell>
        <mxCell id="XE_Ec_hiV0-5Nvh7rK8N-16" value="&lt;div style=&quot;text-wrap: nowrap;&quot;&gt;&lt;div&gt;1 비회원이 약관 동의 버튼을 클릭한다.&lt;/div&gt;&lt;div&gt;2 비회원이 휴대전화 본인 인증을 클릭한다&lt;/div&gt;&lt;div&gt;3 시스템은 본인인증 팝업 창을 표시한다&lt;/div&gt;&lt;div&gt;4 팝업창에 개인정보(이름/ 주민번호/ 전화번호/ 보안문자 등)를 입력한다&lt;/div&gt;&lt;div&gt;5 시스템은 해당 정보로 인증코드를 전송한다&lt;/div&gt;&lt;div&gt;6 시스템은 인증확인 처리를 한 뒤 회원정보 등록 페이지로 이동한다&lt;/div&gt;&lt;div&gt;7 비회원은 회원정보(아이디)를 입력한다&lt;/div&gt;&lt;div&gt;8 비회원은 아이디 중복확인 버튼을 클릭한다&lt;/div&gt;&lt;div&gt;9 시스템은 아이디 중복처리를 한 뒤 사용가능 확인 메시지를 전달한다&lt;/div&gt;&lt;div&gt;10&lt;span style=&quot;background-color: transparent; color: light-dark(rgb(0, 0, 0), rgb(255, 255, 255));&quot;&gt;&amp;nbsp;비회원은 회원정보(비밀번호)를 입력한다&lt;/span&gt;&lt;/div&gt;&lt;div&gt;&lt;span style=&quot;background-color: transparent; color: light-dark(rgb(0, 0, 0), rgb(255, 255, 255));&quot;&gt;11 시스템은 비밀번호 조건일치 확인 처리를 한다&lt;/span&gt;&lt;/div&gt;&lt;div&gt;&lt;span style=&quot;background-color: transparent; color: light-dark(rgb(0, 0, 0), rgb(255, 255, 255));&quot;&gt;12 비회원은 &#39;비밀번호 확인&#39; 란에 설정한 비밀번호를 재입력한다&lt;/span&gt;&lt;/div&gt;&lt;div&gt;&lt;span style=&quot;background-color: transparent; color: light-dark(rgb(0, 0, 0), rgb(255, 255, 255));&quot;&gt;13 시스템은 비회원이 입력한 &#39;비밀번호&#39;의 내용과 &#39;비밀번호 확인&#39;란의 내용이 일치하는지 확인한다&lt;/span&gt;&lt;/div&gt;&lt;div&gt;&lt;span style=&quot;background-color: transparent; color: light-dark(rgb(0, 0, 0), rgb(255, 255, 255));&quot;&gt;14 비회원은 회원정보(한글 이름/ 영문 이름/ 이메일)를 입력한다&lt;/span&gt;&lt;/div&gt;&lt;div&gt;15 시스템은 이메일이 올바른 형식인지 확인한다&lt;/div&gt;&lt;div&gt;16 비회원은 회원가입 버튼을 클릭한다&lt;/div&gt;&lt;div&gt;17 시스템은 회원가입 처리 이후 회원가입 완료 메시지를 전달한다&lt;/div&gt;&lt;div&gt;18 비회원은 메시지 확인 버튼을 클릭한다&lt;/div&gt;&lt;div&gt;19 시스템은 로그인 페이지로 이동한다&lt;/div&gt;&lt;div&gt;&lt;br&gt;&lt;/div&gt;&lt;/div&gt;" style="shape=partialRectangle;connectable=0;fillColor=none;top=0;left=0;bottom=0;right=0;align=left;spacingLeft=6;fontStyle=0;overflow=hidden;whiteSpace=wrap;html=1;" parent="XE_Ec_hiV0-5Nvh7rK8N-14" vertex="1">
          <mxGeometry x="60" width="570" height="320" as="geometry">
            <mxRectangle width="570" height="320" as="alternateBounds" />
          </mxGeometry>
        </mxCell>
        <mxCell id="XE_Ec_hiV0-5Nvh7rK8N-17" value="" style="shape=tableRow;horizontal=0;startSize=0;swimlaneHead=0;swimlaneBody=0;fillColor=none;collapsible=0;dropTarget=0;points=[[0,0.5],[1,0.5]];portConstraint=eastwest;top=0;left=0;right=0;bottom=1;" parent="XE_Ec_hiV0-5Nvh7rK8N-1" vertex="1">
          <mxGeometry y="480" width="630" height="130" as="geometry" />
        </mxCell>
        <mxCell id="XE_Ec_hiV0-5Nvh7rK8N-18" value="대안흐름" style="shape=partialRectangle;connectable=0;fillColor=none;top=0;left=0;bottom=0;right=0;fontStyle=1;overflow=hidden;whiteSpace=wrap;html=1;" parent="XE_Ec_hiV0-5Nvh7rK8N-17" vertex="1">
          <mxGeometry width="60" height="130" as="geometry">
            <mxRectangle width="60" height="130" as="alternateBounds" />
          </mxGeometry>
        </mxCell>
        <mxCell id="XE_Ec_hiV0-5Nvh7rK8N-19" value="&lt;div&gt;취소 버튼를 입력하면 메인 화면으로 이동&lt;/div&gt;" style="shape=partialRectangle;connectable=0;fillColor=none;top=0;left=0;bottom=0;right=0;align=left;spacingLeft=6;fontStyle=0;overflow=hidden;whiteSpace=wrap;html=1;" parent="XE_Ec_hiV0-5Nvh7rK8N-17" vertex="1">
          <mxGeometry x="60" width="570" height="130" as="geometry">
            <mxRectangle width="570" height="130" as="alternateBounds" />
          </mxGeometry>
        </mxCell>
        <mxCell id="XE_Ec_hiV0-5Nvh7rK8N-20" value="" style="shape=tableRow;horizontal=0;startSize=0;swimlaneHead=0;swimlaneBody=0;fillColor=none;collapsible=0;dropTarget=0;points=[[0,0.5],[1,0.5]];portConstraint=eastwest;top=0;left=0;right=0;bottom=1;" parent="XE_Ec_hiV0-5Nvh7rK8N-1" vertex="1">
          <mxGeometry y="610" width="630" height="390" as="geometry" />
        </mxCell>
        <mxCell id="XE_Ec_hiV0-5Nvh7rK8N-21" value="예외흐름" style="shape=partialRectangle;connectable=0;fillColor=none;top=0;left=0;bottom=0;right=0;fontStyle=1;overflow=hidden;whiteSpace=wrap;html=1;" parent="XE_Ec_hiV0-5Nvh7rK8N-20" vertex="1">
          <mxGeometry width="60" height="390" as="geometry">
            <mxRectangle width="60" height="390" as="alternateBounds" />
          </mxGeometry>
        </mxCell>
        <mxCell id="XE_Ec_hiV0-5Nvh7rK8N-22" value="&lt;div style=&quot;text-wrap: nowrap;&quot;&gt;1a 약관동의에 체크하지 않은 경우&lt;/div&gt;&lt;div style=&quot;text-wrap: nowrap;&quot;&gt;&lt;span style=&quot;white-space: pre;&quot;&gt;&#x9;&lt;/span&gt;시스템은 &#39;약관동의는 필수입니다&#39; 라는 메시지를 비회원에게 전달&amp;nbsp;&lt;/div&gt;&lt;div style=&quot;text-wrap: nowrap;&quot;&gt;&lt;br&gt;&lt;/div&gt;&lt;div style=&quot;text-wrap: nowrap;&quot;&gt;1b 본인인증 시 실명확인이 안 되는 경우&lt;/div&gt;&lt;div style=&quot;text-wrap: nowrap;&quot;&gt;&lt;span style=&quot;white-space: pre;&quot;&gt;&#x9;&lt;/span&gt;시스템은 &#39;정보를 재확인 후 입력해주세요&#39; 라는 메시지를 전달&lt;br&gt;&lt;/div&gt;&lt;div style=&quot;text-wrap: nowrap;&quot;&gt;&lt;br&gt;&lt;/div&gt;&lt;div style=&quot;text-wrap: nowrap;&quot;&gt;1c 본인인증 시 만 14세 미만인 경우&lt;/div&gt;&lt;div style=&quot;text-wrap: nowrap;&quot;&gt;&lt;span style=&quot;white-space: pre;&quot;&gt;&#x9;&lt;/span&gt;시스템은 &#39;만 14세 미만은 회원가입이 불가능합니다&#39; 라는 메시지를 전달&lt;br&gt;&lt;/div&gt;&lt;div style=&quot;text-wrap: nowrap;&quot;&gt;&lt;br&gt;&lt;/div&gt;&lt;div style=&quot;text-wrap: nowrap;&quot;&gt;1d 인증코드 입력 시 시간 만료된 경우 (3분?)&lt;/div&gt;&lt;div style=&quot;text-wrap: nowrap;&quot;&gt;&lt;span style=&quot;white-space: pre;&quot;&gt;&#x9;&lt;/span&gt;시스템은 &#39;시간이 초과되었습니다&#39; 라는 메시지를 전달&lt;br&gt;&lt;/div&gt;&lt;div style=&quot;text-wrap: nowrap;&quot;&gt;&lt;span style=&quot;background-color: transparent; color: light-dark(rgb(0, 0, 0), rgb(255, 255, 255));&quot;&gt;&lt;br&gt;&lt;/span&gt;&lt;/div&gt;&lt;div style=&quot;text-wrap: nowrap;&quot;&gt;&lt;span style=&quot;background-color: transparent; color: light-dark(rgb(0, 0, 0), rgb(255, 255, 255));&quot;&gt;1e 동일한 아이디가 있는경우&lt;/span&gt;&lt;/div&gt;&lt;div style=&quot;text-wrap: nowrap;&quot;&gt;&lt;span style=&quot;white-space-collapse: preserve;&quot;&gt;&#x9;&lt;/span&gt;시스템은 &#39;동일한 아이디가 있습니다&#39; 라는 메시지를 비회원에게 전달&lt;br&gt;&lt;/div&gt;&lt;div style=&quot;text-wrap: nowrap;&quot;&gt;&lt;br&gt;&lt;/div&gt;&lt;div style=&quot;text-wrap: nowrap;&quot;&gt;1f 비밀번호 조건에 부합하지 않는 경우&lt;/div&gt;&lt;div style=&quot;text-wrap: nowrap;&quot;&gt;&lt;span style=&quot;white-space: pre;&quot;&gt;&#x9;&lt;/span&gt;시스템은 &#39;조건에 알맞은 비밀번호를 설정해주세요&#39; 라는 메시지를 비회원에게 전달&lt;br&gt;&lt;/div&gt;&lt;div style=&quot;text-wrap: nowrap;&quot;&gt;&lt;br&gt;&lt;/div&gt;&lt;div style=&quot;text-wrap: nowrap;&quot;&gt;1g&amp;nbsp;&amp;nbsp;&lt;span style=&quot;background-color: transparent; color: light-dark(rgb(0, 0, 0), rgb(255, 255, 255));&quot;&gt;&#39;비밀번호&#39;의 내용과 &#39;비밀번호 확인&#39;란의 내용이 일치하지 않는 경우&lt;/span&gt;&lt;/div&gt;&lt;div style=&quot;text-wrap: nowrap;&quot;&gt;&lt;span style=&quot;background-color: transparent; color: light-dark(rgb(0, 0, 0), rgb(255, 255, 255));&quot;&gt;&lt;span style=&quot;white-space: pre;&quot;&gt;&#x9;&lt;/span&gt;시스템은 &#39;비밀번호가 일치하지 않습니다&#39; 라는 메시지를 비회원에게 전달&lt;br&gt;&lt;/span&gt;&lt;/div&gt;&lt;div style=&quot;text-wrap: nowrap;&quot;&gt;&lt;span style=&quot;background-color: transparent; color: light-dark(rgb(0, 0, 0), rgb(255, 255, 255));&quot;&gt;&lt;br&gt;&lt;/span&gt;&lt;/div&gt;&lt;div style=&quot;text-wrap: nowrap;&quot;&gt;1h 이메일의 형식이 올바르지 않은 경우&lt;/div&gt;&lt;div style=&quot;text-wrap: nowrap;&quot;&gt;&lt;span style=&quot;white-space: pre;&quot;&gt;&#x9;&lt;/span&gt;시스템은 &#39;이메일의 형식이 올바르지 않습니다&#39; 라는 메시지를 비회원에게 전달&lt;/div&gt;" style="shape=partialRectangle;connectable=0;fillColor=none;top=0;left=0;bottom=0;right=0;align=left;spacingLeft=6;fontStyle=0;overflow=hidden;whiteSpace=wrap;html=1;" parent="XE_Ec_hiV0-5Nvh7rK8N-20" vertex="1">
          <mxGeometry x="60" width="570" height="390" as="geometry">
            <mxRectangle width="570" height="390" as="alternateBounds" />
          </mxGeometry>
        </mxCell>
      </root>
    </mxGraphModel>
  </diagram>
  <diagram name="항공예매 요구사항 확인" id="sO50tjBvRxt-lNrI1v0B">
    <mxGraphModel dx="837" dy="784" grid="1" gridSize="10" guides="1" tooltips="1" connect="1" arrows="1" fold="1" page="1" pageScale="1" pageWidth="827" pageHeight="1169" math="0" shadow="0">
      <root>
        <mxCell id="0" />
        <mxCell id="1" parent="0" />
        <mxCell id="bk7Mao5zLf92-NXpu16E-1" value="" style="shape=card;whiteSpace=wrap;html=1;" parent="1" vertex="1">
          <mxGeometry x="60" y="100" width="1005" height="650" as="geometry" />
        </mxCell>
        <mxCell id="bk7Mao5zLf92-NXpu16E-2" value="&lt;div&gt;&lt;br&gt;&lt;/div&gt;" style="rounded=0;whiteSpace=wrap;html=1;" parent="1" vertex="1">
          <mxGeometry x="810" y="200" width="240" height="530" as="geometry" />
        </mxCell>
        <mxCell id="bk7Mao5zLf92-NXpu16E-3" value="" style="rounded=0;whiteSpace=wrap;html=1;" parent="1" vertex="1">
          <mxGeometry x="565" y="200" width="240" height="530" as="geometry" />
        </mxCell>
        <mxCell id="bk7Mao5zLf92-NXpu16E-4" value="" style="rounded=0;whiteSpace=wrap;html=1;" parent="1" vertex="1">
          <mxGeometry x="320" y="200" width="240" height="530" as="geometry" />
        </mxCell>
        <mxCell id="bk7Mao5zLf92-NXpu16E-5" value="&lt;div&gt;&lt;br&gt;&lt;/div&gt;" style="rounded=0;whiteSpace=wrap;html=1;" parent="1" vertex="1">
          <mxGeometry x="75" y="200" width="240" height="530" as="geometry" />
        </mxCell>
        <mxCell id="bk7Mao5zLf92-NXpu16E-6" value="인증 서비스" style="rounded=0;whiteSpace=wrap;html=1;fillColor=#e1d5e7;strokeColor=#9673a6;" parent="1" vertex="1">
          <mxGeometry x="75" y="200" width="240" height="30" as="geometry" />
        </mxCell>
        <mxCell id="bk7Mao5zLf92-NXpu16E-7" value="인증서비스" style="rounded=0;whiteSpace=wrap;html=1;fillColor=#e1d5e7;strokeColor=#9673a6;" parent="1" vertex="1">
          <mxGeometry x="320" y="200" width="240" height="30" as="geometry" />
        </mxCell>
        <mxCell id="bk7Mao5zLf92-NXpu16E-8" value="인증서비스" style="rounded=0;whiteSpace=wrap;html=1;fillColor=#e1d5e7;strokeColor=#9673a6;" parent="1" vertex="1">
          <mxGeometry x="565" y="200" width="240" height="30" as="geometry" />
        </mxCell>
        <mxCell id="bk7Mao5zLf92-NXpu16E-9" value="인증서비스" style="rounded=0;whiteSpace=wrap;html=1;fillColor=#e1d5e7;strokeColor=#9673a6;" parent="1" vertex="1">
          <mxGeometry x="810" y="200" width="240" height="30" as="geometry" />
        </mxCell>
        <mxCell id="bk7Mao5zLf92-NXpu16E-10" value="항공편 조회 서비스" style="rounded=0;whiteSpace=wrap;html=1;fillColor=#e1d5e7;strokeColor=#9673a6;" parent="1" vertex="1">
          <mxGeometry x="75" y="370" width="240" height="30" as="geometry" />
        </mxCell>
        <mxCell id="bk7Mao5zLf92-NXpu16E-11" value="항공편 조회 서비스" style="rounded=0;whiteSpace=wrap;html=1;fillColor=#e1d5e7;strokeColor=#9673a6;" parent="1" vertex="1">
          <mxGeometry x="320" y="370" width="240" height="30" as="geometry" />
        </mxCell>
        <mxCell id="bk7Mao5zLf92-NXpu16E-12" value="항공편 조회 서비스" style="rounded=0;whiteSpace=wrap;html=1;fillColor=#e1d5e7;strokeColor=#9673a6;" parent="1" vertex="1">
          <mxGeometry x="565" y="370" width="240" height="30" as="geometry" />
        </mxCell>
        <mxCell id="bk7Mao5zLf92-NXpu16E-13" value="항공편 조회 서비스" style="rounded=0;whiteSpace=wrap;html=1;fillColor=#e1d5e7;strokeColor=#9673a6;" parent="1" vertex="1">
          <mxGeometry x="810" y="370" width="240" height="30" as="geometry" />
        </mxCell>
        <mxCell id="bk7Mao5zLf92-NXpu16E-14" value="예매 서비스" style="rounded=0;whiteSpace=wrap;html=1;fillColor=#e1d5e7;strokeColor=#9673a6;" parent="1" vertex="1">
          <mxGeometry x="75" y="540" width="240" height="30" as="geometry" />
        </mxCell>
        <mxCell id="bk7Mao5zLf92-NXpu16E-15" value="예매 서비스" style="rounded=0;whiteSpace=wrap;html=1;fillColor=#e1d5e7;strokeColor=#9673a6;" parent="1" vertex="1">
          <mxGeometry x="320" y="540" width="240" height="30" as="geometry" />
        </mxCell>
        <mxCell id="bk7Mao5zLf92-NXpu16E-16" value="예매 서비스" style="rounded=0;whiteSpace=wrap;html=1;fillColor=#e1d5e7;strokeColor=#9673a6;" parent="1" vertex="1">
          <mxGeometry x="565" y="540" width="240" height="30" as="geometry" />
        </mxCell>
        <mxCell id="bk7Mao5zLf92-NXpu16E-17" value="예매 서비스" style="rounded=0;whiteSpace=wrap;html=1;fillColor=#e1d5e7;strokeColor=#9673a6;" parent="1" vertex="1">
          <mxGeometry x="810" y="540" width="240" height="30" as="geometry" />
        </mxCell>
        <mxCell id="bk7Mao5zLf92-NXpu16E-18" value="&lt;font style=&quot;font-size: 24px;&quot;&gt;항공편 예매 프로그램&lt;/font&gt;" style="text;html=1;align=center;verticalAlign=middle;resizable=0;points=[];autosize=1;strokeColor=none;fillColor=none;" parent="1" vertex="1">
          <mxGeometry x="75" y="110" width="240" height="40" as="geometry" />
        </mxCell>
        <mxCell id="bk7Mao5zLf92-NXpu16E-19" value="사서" style="text;html=1;align=center;verticalAlign=middle;resizable=0;points=[];autosize=1;strokeColor=none;fillColor=none;" parent="1" vertex="1">
          <mxGeometry x="325" y="158" width="50" height="30" as="geometry" />
        </mxCell>
        <mxCell id="bk7Mao5zLf92-NXpu16E-20" value="비회원" style="text;html=1;align=center;verticalAlign=middle;resizable=0;points=[];autosize=1;strokeColor=none;fillColor=none;" parent="1" vertex="1">
          <mxGeometry x="595" y="158" width="60" height="30" as="geometry" />
        </mxCell>
        <mxCell id="bk7Mao5zLf92-NXpu16E-21" value="회원" style="text;html=1;align=center;verticalAlign=middle;resizable=0;points=[];autosize=1;strokeColor=none;fillColor=none;" parent="1" vertex="1">
          <mxGeometry x="75" y="158" width="50" height="30" as="geometry" />
        </mxCell>
        <mxCell id="bk7Mao5zLf92-NXpu16E-22" value="관리자" style="text;html=1;align=center;verticalAlign=middle;resizable=0;points=[];autosize=1;strokeColor=none;fillColor=none;" parent="1" vertex="1">
          <mxGeometry x="875" y="158" width="60" height="30" as="geometry" />
        </mxCell>
        <mxCell id="bk7Mao5zLf92-NXpu16E-23" value="&lt;div&gt;&lt;br&gt;&lt;/div&gt;" style="text;html=1;align=left;verticalAlign=middle;resizable=0;points=[];autosize=1;strokeColor=none;fillColor=none;fontSize=10;" parent="1" vertex="1">
          <mxGeometry x="570" y="255" width="20" height="30" as="geometry" />
        </mxCell>
        <mxCell id="bk7Mao5zLf92-NXpu16E-24" value="&lt;div&gt;&lt;br&gt;&lt;/div&gt;" style="text;html=1;align=left;verticalAlign=middle;resizable=0;points=[];autosize=1;strokeColor=none;fillColor=none;fontSize=10;" parent="1" vertex="1">
          <mxGeometry x="325" y="280" width="20" height="30" as="geometry" />
        </mxCell>
        <mxCell id="bk7Mao5zLf92-NXpu16E-25" value="&lt;div&gt;&lt;br&gt;&lt;/div&gt;" style="text;html=1;align=left;verticalAlign=middle;resizable=0;points=[];autosize=1;strokeColor=none;fillColor=none;fontSize=10;" parent="1" vertex="1">
          <mxGeometry x="335" y="435" width="20" height="30" as="geometry" />
        </mxCell>
        <mxCell id="bk7Mao5zLf92-NXpu16E-26" value="&lt;div&gt;&lt;br&gt;&lt;/div&gt;" style="text;html=1;align=left;verticalAlign=middle;resizable=0;points=[];autosize=1;strokeColor=none;fillColor=none;fontSize=10;" parent="1" vertex="1">
          <mxGeometry x="575" y="430" width="20" height="30" as="geometry" />
        </mxCell>
        <mxCell id="bk7Mao5zLf92-NXpu16E-27" value="비회원" style="rounded=0;whiteSpace=wrap;html=1;fillColor=#dae8fc;strokeColor=#6c8ebf;" parent="1" vertex="1">
          <mxGeometry x="75" y="158" width="240" height="30" as="geometry" />
        </mxCell>
        <mxCell id="bk7Mao5zLf92-NXpu16E-28" value="회원" style="rounded=0;whiteSpace=wrap;html=1;fillColor=#dae8fc;strokeColor=#6c8ebf;" parent="1" vertex="1">
          <mxGeometry x="320" y="158" width="240" height="30" as="geometry" />
        </mxCell>
        <mxCell id="bk7Mao5zLf92-NXpu16E-29" value="관리자" style="rounded=0;whiteSpace=wrap;html=1;fillColor=#dae8fc;strokeColor=#6c8ebf;" parent="1" vertex="1">
          <mxGeometry x="810" y="158" width="240" height="30" as="geometry" />
        </mxCell>
        <mxCell id="bk7Mao5zLf92-NXpu16E-30" value="직원" style="rounded=0;whiteSpace=wrap;html=1;fillColor=#dae8fc;strokeColor=#6c8ebf;" parent="1" vertex="1">
          <mxGeometry x="565" y="158" width="240" height="30" as="geometry" />
        </mxCell>
        <mxCell id="bk7Mao5zLf92-NXpu16E-31" value="&lt;div&gt;&lt;br&gt;&lt;/div&gt;" style="text;html=1;align=left;verticalAlign=middle;resizable=0;points=[];autosize=1;strokeColor=none;fillColor=none;fontSize=10;" parent="1" vertex="1">
          <mxGeometry x="825" y="285" width="20" height="30" as="geometry" />
        </mxCell>
        <mxCell id="bk7Mao5zLf92-NXpu16E-32" value="&lt;div&gt;&lt;div&gt;&lt;br style=&quot;font-size: 10px; text-align: left;&quot;&gt;&lt;/div&gt;&lt;/div&gt;" style="text;html=1;align=center;verticalAlign=middle;resizable=0;points=[];autosize=1;strokeColor=none;fillColor=none;" parent="1" vertex="1">
          <mxGeometry x="915" y="440" width="20" height="30" as="geometry" />
        </mxCell>
        <mxCell id="bk7Mao5zLf92-NXpu16E-33" value="비회원은 회원가입 가능(Create)" style="text;html=1;align=center;verticalAlign=middle;resizable=0;points=[];autosize=1;strokeColor=none;fillColor=none;" parent="1" vertex="1">
          <mxGeometry x="100" y="270" width="180" height="30" as="geometry" />
        </mxCell>
        <mxCell id="bk7Mao5zLf92-NXpu16E-34" value="회원은 회원정보 조회 가능 (Read)&lt;div&gt;회원은 회원정보 수정 가능(Update)&lt;/div&gt;&lt;div&gt;회원은 회원정보 삭제가능(Delete)&lt;/div&gt;&lt;div&gt;&lt;br&gt;&lt;/div&gt;&lt;div&gt;회원은 로그인 가능(Process)&lt;/div&gt;&lt;div&gt;회원은 로그아웃 가능(Process)&lt;/div&gt;" style="text;html=1;align=center;verticalAlign=middle;resizable=0;points=[];autosize=1;strokeColor=none;fillColor=none;" parent="1" vertex="1">
          <mxGeometry x="340" y="245" width="200" height="100" as="geometry" />
        </mxCell>
        <mxCell id="bk7Mao5zLf92-NXpu16E-35" value="직원은 회원의 정보 조회 가능(Read)&lt;div&gt;직원은 회원의 정보 수정 가능(Update)&lt;/div&gt;&lt;div&gt;직원은 회원의 탈퇴 가능(Delete)&lt;/div&gt;&lt;div&gt;&lt;br&gt;&lt;/div&gt;&lt;div&gt;직원은 로그인 가능(Process)&lt;/div&gt;&lt;div&gt;직원은 로그아웃 가능(Process)&lt;/div&gt;" style="text;html=1;align=center;verticalAlign=middle;resizable=0;points=[];autosize=1;strokeColor=none;fillColor=none;" parent="1" vertex="1">
          <mxGeometry x="575" y="240" width="220" height="100" as="geometry" />
        </mxCell>
        <mxCell id="bk7Mao5zLf92-NXpu16E-36" value="관리자는 모든 회원의 정보 조회 가능(Read)&lt;div&gt;관리자는 모든 회원의 정보 수정 가능(Update)&lt;/div&gt;&lt;div&gt;관리자는 회원의 탈퇴 가능(Delete)&lt;/div&gt;&lt;div&gt;&lt;br&gt;&lt;/div&gt;&lt;div&gt;관리자는 로그인 가능(Process)&lt;/div&gt;&lt;div&gt;관리자는 로그아웃 가능(Process)&lt;/div&gt;" style="text;html=1;align=center;verticalAlign=middle;resizable=0;points=[];autosize=1;strokeColor=none;fillColor=none;" parent="1" vertex="1">
          <mxGeometry x="800" y="240" width="250" height="100" as="geometry" />
        </mxCell>
        <mxCell id="bk7Mao5zLf92-NXpu16E-37" value="&lt;div&gt;관리자는 항공편 등록 가능(Create)&lt;/div&gt;&lt;div&gt;관리자는 항공편 *현황 조회가능(Read)&lt;/div&gt;&lt;div&gt;관리자는 항공편 지연/결항시 공지 가능(Update)&lt;/div&gt;&lt;div&gt;관리자는 항공편 수정 가능(Update)&lt;/div&gt;&lt;div&gt;관리자는 항공편 삭제 가능(Delete)&lt;/div&gt;" style="text;html=1;align=center;verticalAlign=middle;resizable=0;points=[];autosize=1;strokeColor=none;fillColor=none;" parent="1" vertex="1">
          <mxGeometry x="800" y="420" width="260" height="90" as="geometry" />
        </mxCell>
        <mxCell id="bk7Mao5zLf92-NXpu16E-38" value="&lt;div&gt;&lt;span style=&quot;background-color: transparent; color: light-dark(rgb(0, 0, 0), rgb(255, 255, 255));&quot;&gt;관리자는 고객 / 전체 예매 내역 조회 가능(Read)&lt;/span&gt;&lt;/div&gt;&lt;div&gt;관리자는 고객이 예매 취소 시 처리가능(Delete)&lt;/div&gt;&lt;div&gt;&lt;br&gt;&lt;br&gt;&lt;/div&gt;&lt;div&gt;관리자는 환불 프로세스 승인 가능(Process)&lt;/div&gt;" style="text;html=1;align=center;verticalAlign=middle;resizable=0;points=[];autosize=1;strokeColor=none;fillColor=none;" parent="1" vertex="1">
          <mxGeometry x="800" y="590" width="260" height="90" as="geometry" />
        </mxCell>
        <mxCell id="bk7Mao5zLf92-NXpu16E-39" value="&lt;div&gt;직원은 고객 / 전체 예매 내역 조회 가능(Read)&lt;/div&gt;&lt;div&gt;직원은 고객이 취소할 시 처리 가능(Update)&lt;/div&gt;&lt;div&gt;&lt;br&gt;&lt;/div&gt;&lt;div&gt;직원은 취소된 항공편 환불 가능(Process)&lt;/div&gt;" style="text;html=1;align=center;verticalAlign=middle;resizable=0;points=[];autosize=1;strokeColor=none;fillColor=none;" parent="1" vertex="1">
          <mxGeometry x="555" y="600" width="250" height="70" as="geometry" />
        </mxCell>
        <mxCell id="bk7Mao5zLf92-NXpu16E-40" value="&lt;div style=&quot;&quot;&gt;&lt;span style=&quot;background-color: transparent; color: light-dark(rgb(0, 0, 0), rgb(255, 255, 255));&quot;&gt;직원은 항공편 *현황 조회 가능(Read)&lt;/span&gt;&lt;/div&gt;&lt;div style=&quot;&quot;&gt;&lt;span style=&quot;background-color: transparent; color: light-dark(rgb(0, 0, 0), rgb(255, 255, 255));&quot;&gt;&lt;font style=&quot;font-size: 11px;&quot;&gt;직원은 항공편 *현황 수정 가능(Updeate)&lt;/font&gt;&lt;/span&gt;&lt;/div&gt;&lt;div style=&quot;&quot;&gt;직원은 항공편 지연/결항시 공지 가능(Update)&lt;/div&gt;" style="text;html=1;align=center;verticalAlign=middle;resizable=0;points=[];autosize=1;" parent="1" vertex="1">
          <mxGeometry x="560" y="435" width="250" height="60" as="geometry" />
        </mxCell>
        <mxCell id="bk7Mao5zLf92-NXpu16E-41" value="회원은 항공편 일정/가격 조회 가능(Read)" style="text;html=1;align=center;verticalAlign=middle;resizable=0;points=[];autosize=1;strokeColor=none;fillColor=none;" parent="1" vertex="1">
          <mxGeometry x="320" y="450" width="230" height="30" as="geometry" />
        </mxCell>
        <mxCell id="bk7Mao5zLf92-NXpu16E-42" value="회원은 항공편 예매 가능(Create)&lt;div&gt;회원은 예매 내역 조회 가능(Read)&lt;/div&gt;&lt;div&gt;회원은 예매 항공편 수정 가능(Update)&lt;/div&gt;&lt;div&gt;회원은 예매 취소 가능(Delete)&lt;/div&gt;&lt;div&gt;&lt;br&gt;&lt;/div&gt;&lt;div&gt;회원은 에매시 마일리지&amp;nbsp;&lt;/div&gt;&lt;div&gt;적립/사용(Process)가능&lt;/div&gt;" style="text;html=1;align=center;verticalAlign=middle;resizable=0;points=[];autosize=1;strokeColor=none;fillColor=none;" parent="1" vertex="1">
          <mxGeometry x="325" y="580" width="220" height="110" as="geometry" />
        </mxCell>
        <mxCell id="bk7Mao5zLf92-NXpu16E-43" value="비회원은 항공편 예매 가능(Create)&lt;div&gt;비회원은 예매 내역 조회 가능(Read)&lt;/div&gt;&lt;div&gt;비회원은 예매 항공편 수정 가능(Update)&lt;/div&gt;&lt;div&gt;비회원은 예매 취소 가능(Delete)&lt;/div&gt;" style="text;html=1;align=center;verticalAlign=middle;resizable=0;points=[];autosize=1;strokeColor=none;fillColor=none;" parent="1" vertex="1">
          <mxGeometry x="85" y="600" width="230" height="70" as="geometry" />
        </mxCell>
        <mxCell id="bk7Mao5zLf92-NXpu16E-44" value="비회원은 항공편 일정/가격 조회 가능(Read)" style="text;html=1;align=center;verticalAlign=middle;resizable=0;points=[];autosize=1;strokeColor=none;fillColor=none;" parent="1" vertex="1">
          <mxGeometry x="70" y="450" width="240" height="30" as="geometry" />
        </mxCell>
        <mxCell id="bk7Mao5zLf92-NXpu16E-45" value="*현황: 좌석, 금액 일정" style="text;html=1;align=center;verticalAlign=middle;whiteSpace=wrap;rounded=0;" parent="1" vertex="1">
          <mxGeometry x="935" y="115" width="115" height="30" as="geometry" />
        </mxCell>
      </root>
    </mxGraphModel>
  </diagram>
</mxfile>
